<svg id="Capa_1" enable-background="new 0 0 511.976 511.976" height="512" viewBox="0 0 511.976 511.976" width="512" xmlns="http://www.w3.org/2000/svg"><path d="m359.788 120.495c-14.043-43.174-47.997-53.574-62.566-56.068-4.501-.77-9.091.521-12.549 3.501-9.418 8.118-26.298 27.87-17.407 60.08 9.277 33.605 42.883 69.077 57.787 83.56 3.943 3.833 10.351 3.382 13.7-.98 11.662-15.192 33.789-50.885 21.035-90.093z" fill="#98d829"/><path d="m343.874 198.235c-14.904-14.483-48.51-49.955-57.787-83.561-6.389-23.145.529-39.857 8.423-50.443-3.586.034-7.073 1.315-9.836 3.696-9.418 8.118-26.298 27.87-17.407 60.08 9.277 33.605 42.883 69.077 57.787 83.56 3.943 3.833 10.352 3.382 13.7-.98 2.207-2.875 4.789-6.487 7.438-10.715-.83-.412-1.614-.954-2.318-1.637z" fill="#8cc826"/><path d="m403.793 290.513c-43.291-30.31-74.171-6.185-89.018 11.421-6.97 8.266-16.672 13.804-27.333 15.605-9.977 1.686-23.609 5.4-34.292 13.499 5.072 5.507 9.801 12.513 13.975 21.351 14.824 31.393 10.683 70.614-5.077 101.342 34.71 37.11 91.558 53.521 125.403 17.803 2.454-2.589 5.627-4.402 9.105-5.198 71.329-16.344 68.112-133.202 7.237-175.823z" fill="#ff636e"/><path d="m286.186 473.921c8.92-15.511 15.359-32.986 18.638-51.068 5.4-29.782 2.091-58.578-9.571-83.272-3.848-8.148-8.106-15.129-12.606-21.114-9.272 1.999-20.44 5.707-29.496 12.573 5.072 5.507 9.801 12.513 13.975 21.351 14.824 31.393 10.683 70.614-5.077 101.342 7.222 7.721 15.404 14.542 24.137 20.188z" fill="#ff4654"/><path d="m398.7 345.621c-5.347-9.772-12.202-17.629-20.375-23.351-3.663-2.565-7.317-4.633-10.862-6.146-3.81-1.627-5.579-6.034-3.952-9.843s6.034-5.578 9.843-3.952c4.497 1.92 9.064 4.496 13.574 7.654 10.079 7.057 18.467 16.625 24.93 28.439 1.988 3.634.654 8.191-2.98 10.179s-8.191.653-10.178-2.98z" fill="#ff4654"/><path d="m268.125 352.39c-22.566-47.787-61.345-42.148-82.968-34.219-10.151 3.722-21.323 3.722-31.474 0-21.624-7.929-60.402-13.568-82.969 34.219-31.731 67.196 23.416 170.273 93.463 149.101 3.415-1.032 7.07-1.032 10.484 0 70.049 21.172 125.196-81.905 93.464-149.101z" fill="#ff7f87"/><path d="m126.297 349.274c7.217-15.283 16.006-25.382 25.386-31.812-21.945-7.511-59.081-11.42-80.968 34.928-31.731 67.196 23.416 170.273 93.463 149.101 2.851-.862 5.868-.994 8.775-.416-45.569-24.864-71.65-98.873-46.656-151.801z" fill="#ff636e"/><path d="m398.902 345.816c1.988 3.634 6.544 4.968 10.18 2.98 3.634-1.988 4.968-6.545 2.98-10.179-9.604-17.555-23.339-29.616-38.505-36.093-3.811-1.626-8.215.143-9.843 3.952-1.627 3.81.143 8.216 3.952 9.843 12.08 5.158 23.26 14.916 31.236 29.497z"/><path d="m398.434 473.843c29.524-6.766 50.246-30.059 56.854-63.906 15.738-80.619-50.531-155.89-108.599-138.677-17.069 5.061-29.783 16.952-37.443 26.035-1.267 1.502-2.648 2.889-4.116 4.168-52.172-92.661-63.938-175.586-64.413-229.694 8.757-14.659 17.181-26.603 24.292-35.812 3.556 6.245 8.595 15.472 14.314 27.064-9.605 8.516-29.063 31.023-19.082 67.178 9.821 35.576 45.084 72.653 59.789 86.943 7.174 6.972 18.809 6.111 24.876-1.792 7.939-10.342 21.809-31.554 25.485-57.408.583-4.101-2.27-7.898-6.37-8.481-4.1-.584-7.898 2.269-8.481 6.37-3.193 22.461-15.487 41.209-22.532 50.385-.622.812-1.8.872-2.524.168-37.244-36.193-80.31-91.727-44.37-129.11 11.19 24.329 23.614 55.75 32.328 90.441.855 3.404 3.911 5.675 7.269 5.675 4.89 0 8.468-4.599 7.28-9.329-8.803-35.045-21.055-66.486-32.256-91.094 26.038 6.323 45.25 26.037 52.261 50.497 1.479 5.048 5.903 6.718 9.563 5.589 3.77-1.161 6.446-4.928 4.566-10.684-15.365-47.239-52.976-58.494-68.434-61.141-1.849-.316-3.704-.393-5.531-.257-7.774-15.786-14.388-27.38-18.003-33.464 5.935-6.864 9.643-10.406 9.783-10.538 3.019-2.833 3.171-7.577.339-10.598-2.833-3.022-7.578-3.176-10.602-.342-.771.723-13.203 12.518-29.606 35.572-14.999 5.795-32.916 9.457-51.346 9.457-4.098 0-7.446 3.296-7.497 7.406-.052 4.142 3.264 7.542 7.405 7.593 12.933.161 25.974-1.61 38.266-4.653-4.513 7.25-9.15 15.2-13.797 23.888-25.271 47.252-55.326 125.639-55.948 231.621-1.923-.383-3.825-.906-5.684-1.588-11.156-4.091-28.092-8.113-45.427-4.044-59.284 13.917-78.961 112.335-25.55 174.277 17.163 19.904 38.4 30.42 60.369 30.419 6.858 0 13.792-1.026 20.689-3.111 2.01-.606 4.135-.607 6.145 0 6.899 2.085 13.829 3.111 20.689 3.111 30.52 0 55.524-19.861 71.606-45.774 14.832 13.702 32.303 23.894 50.074 29.063.699.203 1.404.3 2.099.3 3.25 0 6.244-2.129 7.197-5.408 1.157-3.977-1.129-8.139-5.106-9.296-16.691-4.854-33.162-14.848-46.879-28.339 17.669-37.952 18.072-85.367-6.913-119.548 8.213-4.513 16.947-6.749 23.434-7.845 12.406-2.096 23.705-8.547 31.816-18.166 54.634-64.787 135.555 19.659 119.854 100.098-3.186 16.317-13.33 44.792-45.481 52.159-4.938 1.131-9.39 3.673-12.874 7.35-8.62 9.097-19.14 14.721-31.267 16.713-4.088.672-6.856 4.53-6.185 8.617.604 3.676 3.784 6.285 7.392 6.285.403 0 .813-.033 1.225-.1 15.434-2.537 28.799-9.668 39.724-21.198 1.442-1.523 3.287-2.577 5.333-3.045zm-221.399 20.664c-2.425-.733-4.918-1.099-7.412-1.099-2.493 0-4.988.366-7.412 1.099-31.573 9.543-54.502-10.154-65.358-22.745-53.471-62.013-25.172-175.553 54.452-146.354 11.813 4.331 24.823 4.332 36.638 0 23.044-8.45 54.519-10.037 73.604 30.38 28.889 61.179-20.883 157.947-84.512 138.719zm109.362-184.167c-11.699 1.976-22.326 5.82-31.13 11.214-7.873-7.112-16.911-11.89-27.062-14.273-17.334-4.067-34.27-.046-45.426 4.044-1.84.675-3.722 1.194-5.626 1.576.584-96.553 26.256-169.344 49.553-215.618 3.754 54.886 19.217 129.627 65.401 211.622-1.856.618-3.763 1.106-5.71 1.435z"/></svg>